# xmcd
#
# Track frame offsets:
#	150
#	13883
#	29887
#	44158
#	55148
#	70343
#	83583
#	97389
#	112504
#	125899
#	141086
#	158786
#	174060
#	189619
#	206533
#
# Disc length: 2914 seconds
#
# Revision: 1
# Processed by: cddbd v1.5.2PL0 Copyright (c) Steve Scherf et al.
# Submitted via: audiograbber 1.83.01
#
DISCID=d80b600f
DTITLE=Embalo Nativo - Pelas Estradas Do Brasil
DYEAR=1900
DGENRE=
TTITLE0=Tranquejo e estampa
TTITLE1=Abram cancha pro bugio
TTITLE2=No toque da sanfona
TTITLE3=O filho dos pampas
TTITLE4=depois da esquila
TTITLE5=Saudade de minha terra
TTITLE6=Do tempo antigo
TTITLE7=Marcas da paixão
TTITLE8=Serenata
TTITLE9=Almerinda
TTITLE10=Companheira
TTITLE11=Pra quem gosta da farra
TTITLE12=Abigeatário
TTITLE13=Saudade
TTITLE14=No rumo do meu cambicho
EXTD=
EXTT0=
EXTT1=
EXTT2=
EXTT3=
EXTT4=
EXTT5=
EXTT6=
EXTT7=
EXTT8=
EXTT9=
EXTT10=
EXTT11=
EXTT12=
EXTT13=
EXTT14=
PLAYORDER=
